<?xml version="1.0" encoding="utf-8"?><svg version="1.1" id="Layer_1" xmlns="http://www.w3.org/2000/svg" xmlns:xlink="http://www.w3.org/1999/xlink" x="0px" y="0px" width="123.583px" height="110.64px" viewBox="0 0 123.583 110.64" enable-background="new 0 0 123.583 110.64" xml:space="preserve"><g><path fill-rule="evenodd" clip-rule="evenodd" stroke="#000000" stroke-width="0.5" stroke-miterlimit="2.6131" d="M23.838,48.211 L0.352,24.841L23.838,0.77v15.174c15.025-0.074,26.659,4.704,34.892,14.394c1.013,1.192,1.965,2.455,2.855,3.786 c0.995-1.561,2.069-3.023,3.223-4.381c8.24-9.698,19.891-14.477,34.936-14.393V0.175l23.486,24.071l-23.486,23.37v-13.3 c-9.197-0.059-16.012,2.497-20.432,7.699c-4.93,5.8-7.615,15.109-8.055,27.966v40.409H52.281v-40.4 c-0.438-12.86-3.125-21.578-8.054-27.379c-4.414-5.194-11.213-7.75-20.389-7.699V48.211L23.838,48.211z"/></g></svg>