<?xml version="1.0" encoding="UTF-8" standalone="no"?>
<svg
   version="1.1"
   id="Layer_1"
   x="0px"
   y="0px"
   width="125.69256"
   height="111.91335"
   viewBox="0 0 125.69256 111.91336"
   enable-background="new 0 0 123.583 110.64"
   xml:space="preserve"
   sodipodi:docname="logo-white.svg"
   inkscape:version="1.3 (0e150ed, 2023-07-21)"
   xmlns:inkscape="http://www.inkscape.org/namespaces/inkscape"
   xmlns:sodipodi="http://sodipodi.sourceforge.net/DTD/sodipodi-0.dtd"
   xmlns="http://www.w3.org/2000/svg"
   xmlns:svg="http://www.w3.org/2000/svg"><defs
     id="defs1" /><sodipodi:namedview
     id="namedview1"
     pagecolor="#ffffff"
     bordercolor="#000000"
     borderopacity="0.25"
     inkscape:showpageshadow="false"
     inkscape:pageopacity="0.0"
     inkscape:pagecheckerboard="false"
     inkscape:deskcolor="#d1d1d1"
     inkscape:zoom="3.439612"
     inkscape:cx="29.218411"
     inkscape:cy="43.609569"
     inkscape:window-width="1968"
     inkscape:window-height="1397"
     inkscape:window-x="233"
     inkscape:window-y="98"
     inkscape:window-maximized="0"
     inkscape:current-layer="g1" /><g
     id="g1"
     transform="translate(1.0552789,0.52335581)"><path
       fill-rule="evenodd"
       clip-rule="evenodd"
       stroke="#000000"
       stroke-width="0.5"
       stroke-miterlimit="2.6131"
       d="M 23.838,48.211 0.352,24.841 23.838,0.77 v 15.174 c 15.025,-0.074 26.659,4.704 34.892,14.394 1.013,1.192 1.965,2.455 2.855,3.786 0.995,-1.561 2.069,-3.023 3.223,-4.381 8.24,-9.698 19.891,-14.477 34.936,-14.393 V 0.175 l 23.486,24.071 -23.486,23.37 v -13.3 c -9.197,-0.059 -16.012,2.497 -20.432,7.699 -4.93,5.8 -7.615,15.109 -8.055,27.966 V 110.39 H 52.281 V 69.99 C 51.843,57.13 49.156,48.412 44.227,42.611 39.813,37.417 33.014,34.861 23.838,34.912 Z"
       id="path1"
       style="fill:#ffffff;fill-opacity:1;stroke:#000000;stroke-width:2;stroke-dasharray:none;stroke-opacity:1" /></g></svg>
